<svg width="351" height="272" viewBox="0 0 351 272" fill="none" xmlns="http://www.w3.org/2000/svg">
<rect y="26" width="311" height="180" rx="16" fill="#0C2073"/>
<mask id="mask0_63_4450" style="mask-type:alpha" maskUnits="userSpaceOnUse" x="0" y="26" width="311" height="180">
<rect y="26" width="311" height="180" rx="16" fill="#2378FA"/>
</mask>
<g mask="url(#mask0_63_4450)">
<path d="M164 65.8806C155.779 44.8347 149 10 149 10H364.5V218H239C239 218 236.116 183.38 229.431 162.378C215.621 118.989 180.568 108.293 164 65.8806Z" fill="#C8D1F9" stroke="black"/>
<mask id="mask1_63_4450" style="mask-type:alpha" maskUnits="userSpaceOnUse" x="-279" y="26" width="553" height="180">
<rect width="551.621" height="180" transform="matrix(1 9.19204e-08 8.31452e-08 -1 -278.272 206)" fill="white"/>
</mask>
<g mask="url(#mask1_63_4450)">
<mask id="mask2_63_4450" style="mask-type:alpha" maskUnits="userSpaceOnUse" x="-279" y="26" width="553" height="180">
<rect width="551.621" height="180" transform="matrix(1 9.19204e-08 8.31452e-08 -1 -278.272 206)" fill="white"/>
</mask>
<g mask="url(#mask2_63_4450)">
<mask id="mask3_63_4450" style="mask-type:alpha" maskUnits="userSpaceOnUse" x="-248" y="26" width="525" height="181">
<path fill-rule="evenodd" clip-rule="evenodd" d="M-247.626 206.092L-247.626 26.0918L154.049 26.0918C187.003 26.1591 205.717 38.2366 214.907 66.6916L254.183 184.275C261.292 204.798 276.241 206.081 276.375 206.092" fill="white"/>
</mask>
<g mask="url(#mask3_63_4450)">
<path fill-rule="evenodd" clip-rule="evenodd" d="M196.794 179.746L180.111 130.018L208.589 45.1193C208.589 45.1193 215.558 27.182 221.944 26.0918L283.984 26.0918L283.984 206.092L226.367 206.092C209.795 206.092 203.177 200.289 196.794 179.746Z" fill="#4263EB"/>
</g>
<mask id="mask4_63_4450" style="mask-type:alpha" maskUnits="userSpaceOnUse" x="-248" y="26" width="525" height="181">
<path fill-rule="evenodd" clip-rule="evenodd" d="M-247.626 206.068L-247.626 26.0906L154.049 26.0906C187.003 26.1579 205.717 38.2339 214.907 66.6854L254.183 184.254C261.292 204.775 276.241 206.057 276.375 206.068" fill="white"/>
</mask>
<g mask="url(#mask4_63_4450)">
<path fill-rule="evenodd" clip-rule="evenodd" d="M180.112 131.25L151.631 45.3467C151.631 45.3467 144.666 27.1956 138.305 26.0945L221.945 26.0945C215.558 27.1956 208.59 45.3467 208.59 45.3467L180.112 131.25Z" fill="#173EDD"/>
</g>
</g>
</g>
<g filter="url(#filter0_b_63_4450)">
<rect x="-15" y="-36" width="348" height="126" fill="white" fill-opacity="0.2"/>
</g>
</g>
<path fill-rule="evenodd" clip-rule="evenodd" d="M29 55L34 50V60H24L29 55ZM34 60H44C44 60 38.9707 60.9436 37.0571 62.8571C35.0655 64.8488 34 70 34 70V60Z" fill="white"/>
<path d="M48.98 65H50.884V60.912H54.3V59.008H50.884V56.824H55.14V54.92H48.98V65ZM56.4038 56.39H58.3078V54.71H56.4038V56.39ZM56.4038 65H58.3078V57.44H56.4038V65ZM60.2524 65H62.1844V61.164C62.1844 60.6927 62.2357 60.3147 62.3384 60.03C62.4457 59.7453 62.5811 59.5307 62.7444 59.386C62.9077 59.2367 63.0827 59.1363 63.2694 59.085C63.4561 59.0337 63.6311 59.008 63.7944 59.008C64.2004 59.008 64.5131 59.099 64.7324 59.281C64.9564 59.463 65.1174 59.6893 65.2154 59.96C65.3134 60.2307 65.3717 60.5013 65.3904 60.772C65.4091 61.038 65.4184 61.2573 65.4184 61.43V65H67.3504V60.758C67.3504 60.632 67.3411 60.4313 67.3224 60.156C67.3037 59.8807 67.2501 59.5773 67.1614 59.246C67.0727 58.91 66.9234 58.588 66.7134 58.28C66.5081 57.972 66.2187 57.7177 65.8454 57.517C65.4721 57.3163 64.9891 57.216 64.3964 57.216C63.8504 57.216 63.3744 57.307 62.9684 57.489C62.5624 57.671 62.2217 57.9137 61.9464 58.217V57.44H60.2524V65ZM69.0128 68.36H70.9308V64.727C71.1781 64.881 71.4511 65 71.7498 65.084C72.0531 65.168 72.3821 65.21 72.7368 65.21C73.4321 65.21 74.0411 65.035 74.5638 64.685C75.0865 64.335 75.4925 63.859 75.7818 63.257C76.0758 62.655 76.2228 61.976 76.2228 61.22C76.2228 60.45 76.0735 59.7663 75.7748 59.169C75.4808 58.567 75.0655 58.0933 74.5288 57.748C73.9921 57.4027 73.3621 57.23 72.6388 57.23C72.2468 57.23 71.8875 57.286 71.5608 57.398C71.2388 57.5053 70.9495 57.6593 70.6928 57.86V57.44H69.0128V68.36ZM72.4288 63.516C71.7941 63.516 71.3461 63.306 71.0848 62.886C70.8235 62.4613 70.6928 61.906 70.6928 61.22C70.6928 60.534 70.8211 59.981 71.0778 59.561C71.3391 59.1363 71.7661 58.924 72.3588 58.924C72.7835 58.924 73.1311 59.029 73.4018 59.239C73.6771 59.4443 73.8801 59.722 74.0108 60.072C74.1415 60.4173 74.2068 60.8 74.2068 61.22C74.2068 61.6447 74.1438 62.032 74.0178 62.382C73.8918 62.7273 73.6981 63.0027 73.4368 63.208C73.1755 63.4133 72.8395 63.516 72.4288 63.516ZM79.7231 65.21C80.3065 65.21 80.7965 65.1213 81.1931 64.944C81.5945 64.762 81.9631 64.4727 82.2991 64.076V65H83.9651V60.38C83.9651 60.0347 83.9511 59.722 83.9231 59.442C83.8951 59.162 83.8065 58.882 83.6571 58.602C83.3911 58.098 82.9991 57.7433 82.4811 57.538C81.9631 57.3327 81.3705 57.23 80.7031 57.23C79.7931 57.23 79.0745 57.426 78.5471 57.818C78.0198 58.21 77.6605 58.7187 77.4691 59.344L79.1911 59.89C79.3125 59.5447 79.5248 59.3043 79.8281 59.169C80.1315 59.0337 80.4231 58.966 80.7031 58.966C81.1511 58.966 81.4848 59.05 81.7041 59.218C81.9235 59.3813 82.0518 59.6403 82.0891 59.995C81.3798 60.0977 80.7545 60.198 80.2131 60.296C79.6718 60.3893 79.2191 60.5013 78.8551 60.632C78.2485 60.856 77.8215 61.1617 77.5741 61.549C77.3268 61.9317 77.2031 62.3867 77.2031 62.914C77.2031 63.334 77.2988 63.719 77.4901 64.069C77.6861 64.4143 77.9708 64.692 78.3441 64.902C78.7221 65.1073 79.1818 65.21 79.7231 65.21ZM80.1291 63.712C79.8025 63.712 79.5435 63.6397 79.3521 63.495C79.1608 63.3457 79.0651 63.1427 79.0651 62.886C79.0651 62.6947 79.1258 62.5313 79.2471 62.396C79.3685 62.256 79.5691 62.13 79.8491 62.018C80.0638 61.9387 80.3275 61.8663 80.6401 61.801C80.9575 61.731 81.4358 61.6423 82.0751 61.535C82.0705 61.717 82.0565 61.9177 82.0331 62.137C82.0098 62.3517 81.9585 62.5407 81.8791 62.704C81.8278 62.8113 81.7298 62.9443 81.5851 63.103C81.4451 63.2617 81.2538 63.404 81.0111 63.53C80.7731 63.6513 80.4791 63.712 80.1291 63.712ZM86.1874 68.36H87.9514L92.2214 57.44H90.3174L88.3434 62.585L86.3554 57.44H84.3814L87.4334 64.937L86.1874 68.36ZM100.055 65.21C101.212 65.21 102.183 64.923 102.967 64.349C103.755 63.775 104.311 62.998 104.633 62.018L102.715 61.486C102.528 62.0927 102.213 62.5663 101.77 62.907C101.326 63.2477 100.755 63.418 100.055 63.418C99.0978 63.418 98.3768 63.1053 97.8915 62.48C97.4108 61.85 97.1705 61.01 97.1705 59.96C97.1705 58.91 97.4108 58.0723 97.8915 57.447C98.3768 56.817 99.0978 56.502 100.055 56.502C100.755 56.502 101.326 56.6723 101.77 57.013C102.213 57.349 102.528 57.8227 102.715 58.434L104.633 57.902C104.311 56.922 103.755 56.145 102.967 55.571C102.183 54.997 101.212 54.71 100.055 54.71C99.0465 54.71 98.1762 54.9293 97.4435 55.368C96.7155 55.8067 96.1532 56.4203 95.7565 57.209C95.3645 57.9977 95.1685 58.9147 95.1685 59.96C95.1685 61.0053 95.3645 61.9223 95.7565 62.711C96.1532 63.4997 96.7155 64.1133 97.4435 64.552C98.1762 64.9907 99.0465 65.21 100.055 65.21ZM108.134 65.21C108.717 65.21 109.207 65.1213 109.604 64.944C110.005 64.762 110.374 64.4727 110.71 64.076V65H112.376V60.38C112.376 60.0347 112.362 59.722 112.334 59.442C112.306 59.162 112.217 58.882 112.068 58.602C111.802 58.098 111.41 57.7433 110.892 57.538C110.374 57.3327 109.781 57.23 109.114 57.23C108.204 57.23 107.485 57.426 106.958 57.818C106.43 58.21 106.071 58.7187 105.88 59.344L107.602 59.89C107.723 59.5447 107.935 59.3043 108.239 59.169C108.542 59.0337 108.834 58.966 109.114 58.966C109.562 58.966 109.895 59.05 110.115 59.218C110.334 59.3813 110.462 59.6403 110.5 59.995C109.79 60.0977 109.165 60.198 108.624 60.296C108.082 60.3893 107.63 60.5013 107.266 60.632C106.659 60.856 106.232 61.1617 105.985 61.549C105.737 61.9317 105.614 62.3867 105.614 62.914C105.614 63.334 105.709 63.719 105.901 64.069C106.097 64.4143 106.381 64.692 106.755 64.902C107.133 65.1073 107.592 65.21 108.134 65.21ZM108.54 63.712C108.213 63.712 107.954 63.6397 107.763 63.495C107.571 63.3457 107.476 63.1427 107.476 62.886C107.476 62.6947 107.536 62.5313 107.658 62.396C107.779 62.256 107.98 62.13 108.26 62.018C108.474 61.9387 108.738 61.8663 109.051 61.801C109.368 61.731 109.846 61.6423 110.486 61.535C110.481 61.717 110.467 61.9177 110.444 62.137C110.42 62.3517 110.369 62.5407 110.29 62.704C110.238 62.8113 110.14 62.9443 109.996 63.103C109.856 63.2617 109.664 63.404 109.422 63.53C109.184 63.6513 108.89 63.712 108.54 63.712ZM114.056 65H115.974V61.136C115.974 60.2587 116.319 59.6613 117.01 59.344C117.234 59.2367 117.484 59.1737 117.759 59.155C118.039 59.1317 118.284 59.1527 118.494 59.218V57.44C118.153 57.398 117.813 57.4073 117.472 57.468C117.131 57.524 116.823 57.636 116.548 57.804C116.371 57.9067 116.214 58.0303 116.079 58.175C115.948 58.3197 115.834 58.4807 115.736 58.658V57.44H114.056V65ZM122.615 65.21C123.03 65.21 123.408 65.154 123.749 65.042C124.089 64.93 124.393 64.7713 124.659 64.566V65H126.339V54.92H124.421V57.692C124.187 57.5427 123.926 57.4283 123.637 57.349C123.352 57.2697 123.044 57.23 122.713 57.23C121.989 57.23 121.359 57.4027 120.823 57.748C120.286 58.0933 119.868 58.567 119.57 59.169C119.276 59.7663 119.129 60.45 119.129 61.22C119.129 61.976 119.273 62.655 119.563 63.257C119.857 63.859 120.265 64.335 120.788 64.685C121.31 65.035 121.919 65.21 122.615 65.21ZM122.923 63.516C122.512 63.516 122.176 63.4133 121.915 63.208C121.653 63.0027 121.46 62.7273 121.334 62.382C121.208 62.032 121.145 61.6447 121.145 61.22C121.145 60.8 121.21 60.4173 121.341 60.072C121.471 59.722 121.672 59.4443 121.943 59.239C122.218 59.029 122.568 58.924 122.993 58.924C123.59 58.924 124.017 59.1363 124.274 59.561C124.53 59.981 124.659 60.534 124.659 61.22C124.659 61.906 124.528 62.4613 124.267 62.886C124.01 63.306 123.562 63.516 122.923 63.516Z" fill="white"/>
<path d="M30.192 141.4H33.456V139.228C34.96 138.964 36.164 138.356 37.068 137.404C37.972 136.444 38.424 135.264 38.424 133.864C38.424 132.624 38.084 131.628 37.404 130.876C36.732 130.124 35.632 129.528 34.104 129.088L31.056 128.224C30.288 128.008 29.728 127.752 29.376 127.456C29.024 127.152 28.848 126.792 28.848 126.376C28.848 125.808 29.12 125.336 29.664 124.96C30.216 124.584 30.888 124.408 31.68 124.432C32.512 124.456 33.22 124.708 33.804 125.188C34.396 125.66 34.776 126.28 34.944 127.048L38.304 126.448C37.968 125.128 37.384 124.056 36.552 123.232C35.728 122.4 34.696 121.848 33.456 121.576V119.344H30.192V121.504C28.768 121.736 27.648 122.296 26.832 123.184C26.016 124.072 25.608 125.192 25.608 126.544C25.608 128.792 26.84 130.296 29.304 131.056L33.576 132.376C34.648 132.728 35.184 133.304 35.184 134.104C35.184 134.728 34.884 135.252 34.284 135.676C33.692 136.1 32.944 136.312 32.04 136.312C31.08 136.312 30.252 136.032 29.556 135.472C28.868 134.912 28.416 134.16 28.2 133.216L24.96 133.72C25.176 135.176 25.744 136.384 26.664 137.344C27.592 138.304 28.768 138.924 30.192 139.204V141.4ZM40.335 138.976H52.431V135.904H45.399L49.263 132.52C49.951 131.92 50.531 131.384 51.003 130.912C51.475 130.432 51.831 129.912 52.071 129.352C52.311 128.784 52.431 128.072 52.431 127.216C52.431 126.056 52.175 125.036 51.663 124.156C51.151 123.276 50.447 122.592 49.551 122.104C48.663 121.608 47.655 121.36 46.527 121.36C45.295 121.36 44.215 121.596 43.287 122.068C42.359 122.54 41.635 123.208 41.115 124.072C40.595 124.936 40.335 125.96 40.335 127.144H43.695C43.679 126.664 43.787 126.22 44.019 125.812C44.251 125.396 44.575 125.064 44.991 124.816C45.415 124.56 45.903 124.432 46.455 124.432C47.247 124.432 47.879 124.692 48.351 125.212C48.831 125.724 49.071 126.376 49.071 127.168C49.071 127.536 48.959 127.932 48.735 128.356C48.511 128.78 48.127 129.232 47.583 129.712L40.335 136.144V138.976ZM54.8194 142.24C55.9234 142.416 56.7434 142.208 57.2794 141.616C57.8154 141.024 58.0834 140.152 58.0834 139V135.736H54.8194V139H56.4994C56.5874 139.576 56.5034 140.044 56.2474 140.404C55.9994 140.764 55.5874 140.92 55.0114 140.872L54.8194 142.24ZM63.2771 139H66.8051L72.5891 124.792V121.72H61.6931V124.792H69.0851L63.2771 139ZM80.2678 139.312C81.3558 139.312 82.3558 139.06 83.2678 138.556C84.1798 138.044 84.9118 137.356 85.4638 136.492C86.0158 135.62 86.2918 134.64 86.2918 133.552C86.2918 132.744 86.1438 131.98 85.8478 131.26C85.5598 130.532 85.1318 129.9 84.5638 129.364C83.9958 128.82 83.2998 128.428 82.4758 128.188L85.9798 124.792V121.72H75.1798V124.792H82.1158L77.4598 128.656L78.9238 131.224C79.3558 130.968 79.8038 130.84 80.2678 130.84C81.0598 130.84 81.7078 131.108 82.2118 131.644C82.7238 132.172 82.9798 132.808 82.9798 133.552C82.9798 134.048 82.8558 134.5 82.6078 134.908C82.3678 135.316 82.0398 135.64 81.6238 135.88C81.2158 136.12 80.7638 136.24 80.2678 136.24C79.6918 136.24 79.1558 136.068 78.6598 135.724C78.1718 135.372 77.8438 134.88 77.6758 134.248L74.5078 135.088C74.7558 135.944 75.1678 136.688 75.7438 137.32C76.3278 137.952 77.0118 138.444 77.7958 138.796C78.5798 139.14 79.4038 139.312 80.2678 139.312ZM95.1915 139.36C96.2795 139.36 97.2795 139.104 98.1915 138.592C99.1035 138.072 99.8355 137.376 100.387 136.504C100.939 135.624 101.215 134.64 101.215 133.552C101.215 132.464 100.979 131.496 100.507 130.648C100.043 129.8 99.3955 129.132 98.5635 128.644C97.7395 128.156 96.7835 127.912 95.6955 127.912C94.5035 127.912 93.4395 128.268 92.5035 128.98V127.504C92.5035 126.976 92.6275 126.48 92.8755 126.016C93.1315 125.544 93.4875 125.164 93.9435 124.876C94.4075 124.58 94.9515 124.432 95.5755 124.432C96.4075 124.432 97.1275 124.736 97.7355 125.344L100.064 123.016C99.4315 122.424 98.7355 122.004 97.9755 121.756C97.2155 121.508 96.4155 121.384 95.5755 121.384C94.2795 121.384 93.1515 121.652 92.1915 122.188C91.2315 122.716 90.4875 123.476 89.9595 124.468C89.4315 125.452 89.1675 126.624 89.1675 127.984V133C89.1675 134.256 89.4315 135.364 89.9595 136.324C90.4875 137.276 91.2035 138.02 92.1075 138.556C93.0195 139.092 94.0475 139.36 95.1915 139.36ZM95.1915 136.24C94.6955 136.24 94.2435 136.116 93.8355 135.868C93.4275 135.62 93.1035 135.292 92.8635 134.884C92.6235 134.476 92.5035 134.032 92.5035 133.552C92.5035 133.056 92.6235 132.604 92.8635 132.196C93.1115 131.78 93.4395 131.452 93.8475 131.212C94.2635 130.964 94.7195 130.84 95.2155 130.84C95.7115 130.84 96.1635 130.964 96.5715 131.212C96.9795 131.452 97.3035 131.78 97.5435 132.196C97.7835 132.604 97.9035 133.056 97.9035 133.552C97.9035 134.048 97.7795 134.5 97.5315 134.908C97.2915 135.316 96.9635 135.64 96.5475 135.88C96.1395 136.12 95.6875 136.24 95.1915 136.24ZM104.385 139H107.649V135.736H104.385V139ZM111.422 139H114.758V121.72H111.422L108.182 123.664V127.264L111.422 125.272V139ZM124.216 139.36C125.304 139.36 126.312 139.104 127.24 138.592C128.168 138.072 128.916 137.376 129.484 136.504C130.052 135.624 130.336 134.64 130.336 133.552C130.336 132.464 130.1 131.5 129.628 130.66C129.164 129.812 128.516 129.148 127.684 128.668C126.86 128.18 125.904 127.936 124.816 127.936C124.44 127.936 124.04 127.984 123.616 128.08C123.192 128.176 122.788 128.328 122.404 128.536L122.644 124.768H129.184V121.72H119.752L119.224 130.912L121.984 131.752C122.176 131.568 122.464 131.376 122.848 131.176C123.232 130.968 123.728 130.864 124.336 130.864C124.832 130.864 125.284 130.984 125.692 131.224C126.108 131.464 126.436 131.788 126.676 132.196C126.924 132.604 127.048 133.056 127.048 133.552C127.048 134.048 126.924 134.5 126.676 134.908C126.436 135.316 126.108 135.64 125.692 135.88C125.284 136.12 124.832 136.24 124.336 136.24C123.776 136.24 123.244 136.06 122.74 135.7C122.236 135.34 121.904 134.856 121.744 134.248L118.6 135.088C118.84 135.936 119.236 136.68 119.788 137.32C120.34 137.96 120.996 138.46 121.756 138.82C122.524 139.18 123.344 139.36 124.216 139.36Z" fill="white"/>
<path d="M154.18 128.12C153.987 127.813 153.78 127.526 153.567 127.26C153.32 126.946 152.853 126.92 152.573 127.2L150.573 129.2C150.72 129.64 150.747 130.146 150.613 130.673C150.38 131.613 149.62 132.373 148.68 132.606C148.153 132.74 147.647 132.713 147.207 132.566C147.207 132.566 146.253 133.52 145.567 134.206C145.233 134.54 145.34 135.126 145.787 135.3C146.5 135.573 147.24 135.713 148 135.713C149.187 135.713 150.34 135.366 151.393 134.72C152.467 134.053 153.433 133.073 154.213 131.826C154.847 130.82 154.813 129.126 154.18 128.12Z" fill="white"/>
<path d="M149.347 128.653L146.653 131.346C146.313 131 146.093 130.52 146.093 130C146.093 128.953 146.947 128.093 148 128.093C148.52 128.093 149 128.313 149.347 128.653Z" fill="white"/>
<path d="M152.167 125.834L149.907 128.094C149.42 127.6 148.747 127.307 148 127.307C146.507 127.307 145.307 128.514 145.307 130C145.307 130.747 145.607 131.42 146.093 131.907L143.84 134.167H143.833C143.093 133.567 142.413 132.8 141.833 131.894C141.167 130.847 141.167 129.147 141.833 128.1C142.607 126.887 143.553 125.934 144.607 125.28C145.66 124.64 146.813 124.287 148 124.287C149.487 124.287 150.927 124.834 152.167 125.834Z" fill="white"/>
<path d="M149.907 130C149.907 131.047 149.053 131.907 148 131.907C147.96 131.907 147.927 131.907 147.887 131.893L149.893 129.887C149.907 129.927 149.907 129.96 149.907 130Z" fill="white"/>
<path d="M154.513 123.486C154.313 123.286 153.987 123.286 153.787 123.486L141.487 135.793C141.287 135.993 141.287 136.32 141.487 136.52C141.587 136.613 141.713 136.666 141.847 136.666C141.98 136.666 142.107 136.613 142.207 136.513L154.513 124.206C154.72 124.006 154.72 123.686 154.513 123.486Z" fill="white"/>
<circle cx="27" cy="171" r="3" fill="white"/>
<circle cx="37" cy="171" r="3" fill="white"/>
<circle cx="47" cy="171" r="3" fill="white"/>
<circle cx="57" cy="171" r="3" fill="white"/>
<path d="M80.536 177.24C81.256 177.24 81.9173 177.067 82.52 176.72C83.128 176.373 83.616 175.909 83.984 175.328C84.352 174.741 84.536 174.091 84.536 173.376C84.536 172.656 84.3733 172.011 84.048 171.44C83.728 170.869 83.2853 170.421 82.72 170.096C82.16 169.765 81.52 169.6 80.8 169.6C80.4587 169.6 80.1147 169.653 79.768 169.76C79.4267 169.867 79.1147 170.021 78.832 170.224L79.024 167.056H83.744V165.48H77.528L77.176 171.536L78.632 172.048C78.8133 171.808 79.0667 171.595 79.392 171.408C79.7173 171.216 80.1147 171.12 80.584 171.12C80.9947 171.12 81.3707 171.221 81.712 171.424C82.0587 171.621 82.3333 171.891 82.536 172.232C82.744 172.573 82.848 172.955 82.848 173.376C82.848 173.787 82.7467 174.163 82.544 174.504C82.3413 174.845 82.0693 175.117 81.728 175.32C81.3867 175.523 81.0053 175.624 80.584 175.624C80.104 175.624 79.6533 175.475 79.232 175.176C78.816 174.872 78.5413 174.464 78.408 173.952L76.8 174.384C76.96 174.944 77.2213 175.44 77.584 175.872C77.9467 176.299 78.3813 176.635 78.888 176.88C79.3947 177.12 79.944 177.24 80.536 177.24ZM89.6721 177.216C90.3921 177.216 91.0428 177.053 91.6241 176.728C92.2055 176.403 92.6668 175.955 93.0081 175.384C93.3495 174.808 93.5201 174.155 93.5201 173.424C93.5201 172.8 93.3975 172.229 93.1521 171.712C92.9121 171.195 92.5655 170.771 92.1121 170.44C91.6641 170.104 91.1281 169.893 90.5041 169.808L93.3521 167.072V165.48H86.4241V167.072H91.3041L87.7841 170.184L88.5681 171.504C88.9255 171.312 89.2881 171.216 89.6561 171.216C90.2961 171.216 90.8135 171.424 91.2081 171.84C91.6081 172.256 91.8081 172.784 91.8081 173.424C91.8081 174.059 91.6108 174.584 91.2161 175C90.8215 175.411 90.3068 175.621 89.6721 175.632C89.2028 175.637 88.7761 175.509 88.3921 175.248C88.0081 174.987 87.7388 174.605 87.5841 174.104L85.9681 174.552C86.1335 175.096 86.3975 175.568 86.7601 175.968C87.1281 176.368 87.5628 176.677 88.0641 176.896C88.5655 177.109 89.1015 177.216 89.6721 177.216ZM97.6124 177H99.3164V165.48H97.6124L95.4444 166.776V168.64L97.6124 167.32V177ZM106.042 177.24C106.794 177.24 107.458 177.088 108.034 176.784C108.616 176.48 109.072 176.059 109.402 175.52C109.733 174.981 109.898 174.36 109.898 173.656C109.898 173.08 109.778 172.547 109.538 172.056C109.304 171.56 108.954 171.149 108.49 170.824C109.226 170.232 109.594 169.44 109.594 168.448C109.594 167.792 109.442 167.224 109.138 166.744C108.834 166.264 108.416 165.893 107.882 165.632C107.349 165.371 106.736 165.24 106.042 165.24C105.349 165.24 104.733 165.371 104.194 165.632C103.661 165.893 103.242 166.264 102.938 166.744C102.634 167.224 102.482 167.792 102.482 168.448C102.482 169.419 102.85 170.211 103.586 170.824C103.122 171.155 102.773 171.565 102.538 172.056C102.309 172.547 102.194 173.08 102.194 173.656C102.194 174.36 102.357 174.981 102.682 175.52C103.013 176.059 103.466 176.48 104.042 176.784C104.624 177.088 105.29 177.24 106.042 177.24ZM106.042 170.048C105.514 170.048 105.085 169.915 104.754 169.648C104.424 169.381 104.258 168.981 104.258 168.448C104.258 167.909 104.424 167.507 104.754 167.24C105.085 166.968 105.514 166.832 106.042 166.832C106.57 166.832 106.997 166.968 107.322 167.24C107.653 167.507 107.818 167.909 107.818 168.448C107.818 168.981 107.653 169.381 107.322 169.648C106.997 169.915 106.57 170.048 106.042 170.048ZM106.042 175.648C105.424 175.648 104.922 175.48 104.538 175.144C104.154 174.803 103.962 174.307 103.962 173.656C103.962 173.005 104.152 172.509 104.53 172.168C104.914 171.821 105.418 171.648 106.042 171.648C106.666 171.648 107.168 171.821 107.546 172.168C107.93 172.509 108.122 173.005 108.122 173.656C108.122 174.307 107.93 174.803 107.546 175.144C107.162 175.48 106.661 175.648 106.042 175.648Z" fill="white"/>
<path d="M264.333 72.6667C269.488 72.6667 273.667 68.488 273.667 63.3333C273.667 58.1787 269.488 54 264.333 54C259.179 54 255 58.1787 255 63.3333C255 68.488 259.179 72.6667 264.333 72.6667Z" fill="white" fill-opacity="0.7"/>
<path d="M277.667 72.6667C282.821 72.6667 287 68.488 287 63.3333C287 58.1787 282.821 54 277.667 54C272.512 54 268.333 58.1787 268.333 63.3333C268.333 68.488 272.512 72.6667 277.667 72.6667Z" fill="white" fill-opacity="0.5"/>
<path d="M286.37 78.0075V78.0692H286.429C286.441 78.0694 286.452 78.0667 286.461 78.0613C286.465 78.0587 286.468 78.0551 286.471 78.051C286.473 78.0469 286.474 78.0423 286.473 78.0377C286.474 78.0332 286.473 78.0288 286.47 78.0247C286.468 78.0207 286.465 78.0173 286.461 78.0148C286.452 78.0092 286.441 78.0064 286.429 78.0069H286.37V78.0075ZM286.43 77.9639C286.456 77.9623 286.481 77.9694 286.502 77.9839C286.51 77.9905 286.517 77.9988 286.521 78.0083C286.525 78.0178 286.527 78.0281 286.527 78.0385C286.527 78.0474 286.526 78.0563 286.522 78.0646C286.519 78.0729 286.513 78.0803 286.507 78.0865C286.491 78.0999 286.471 78.108 286.449 78.1095L286.529 78.1974H286.468L286.394 78.1101H286.37V78.1974H286.319V77.964H286.431L286.43 77.9639ZM286.414 78.2779C286.441 78.2781 286.468 78.2729 286.493 78.2625C286.516 78.2526 286.538 78.2384 286.557 78.2207C286.575 78.203 286.59 78.182 286.6 78.159C286.621 78.1101 286.621 78.0552 286.6 78.0063C286.59 77.9833 286.575 77.9624 286.557 77.9446C286.538 77.9269 286.516 77.9127 286.493 77.9028C286.468 77.8929 286.441 77.888 286.414 77.8883C286.387 77.888 286.359 77.893 286.334 77.9028C286.31 77.9125 286.287 77.9267 286.269 77.9446C286.24 77.9726 286.221 78.008 286.214 78.0464C286.206 78.0847 286.21 78.1244 286.226 78.1605C286.236 78.1837 286.25 78.2047 286.269 78.2222C286.287 78.2401 286.31 78.2543 286.334 78.264C286.359 78.2744 286.387 78.2797 286.414 78.2794V78.2779ZM286.414 77.8321C286.484 77.8321 286.552 77.8587 286.602 77.9062C286.626 77.929 286.645 77.9562 286.659 77.9862C286.672 78.0171 286.679 78.0502 286.679 78.0838C286.679 78.1173 286.672 78.1505 286.659 78.1813C286.645 78.2112 286.626 78.2384 286.602 78.2614C286.577 78.2841 286.549 78.3024 286.518 78.3154C286.485 78.3288 286.45 78.3356 286.414 78.3354C286.378 78.3357 286.342 78.3288 286.309 78.3154C286.277 78.3027 286.249 78.2843 286.224 78.2614C286.2 78.2375 286.181 78.2094 286.168 78.1787C286.155 78.1479 286.148 78.1147 286.148 78.0812C286.148 78.0476 286.155 78.0144 286.168 77.9836C286.181 77.9536 286.201 77.9264 286.225 77.9036C286.249 77.8802 286.278 77.8618 286.31 77.8496C286.343 77.8361 286.379 77.8293 286.415 77.8295L286.414 77.8321ZM261.915 76.9309C261.915 76.4859 262.217 76.1204 262.711 76.1204C263.184 76.1204 263.503 76.4702 263.503 76.9309C263.503 77.3916 263.184 77.7414 262.711 77.7414C262.217 77.7414 261.915 77.3759 261.915 76.9309ZM264.041 76.9309V75.6646H263.47V75.9731C263.289 75.7451 263.014 75.6022 262.64 75.6022C261.904 75.6022 261.327 76.1587 261.327 76.9315C261.327 77.7044 261.904 78.2609 262.64 78.2609C263.014 78.2609 263.289 78.1178 263.47 77.89V78.1974H264.04V76.9309H264.041ZM283.336 76.9309C283.336 76.4859 283.638 76.1204 284.132 76.1204C284.605 76.1204 284.923 76.4702 284.923 76.9309C284.923 77.3916 284.605 77.7414 284.132 77.7414C283.638 77.7414 283.336 77.3759 283.336 76.9309ZM285.462 76.9309V74.6482H284.891V75.9731C284.71 75.7451 284.435 75.6022 284.061 75.6022C283.325 75.6022 282.748 76.1587 282.748 76.9315C282.748 77.7044 283.325 78.2609 284.061 78.2609C284.435 78.2609 284.71 78.1178 284.891 77.89V78.1974H285.462V76.9309ZM271.128 76.0943C271.496 76.0943 271.733 76.3167 271.793 76.7084H270.43C270.491 76.3428 270.722 76.0943 271.128 76.0943H271.128ZM271.14 75.6008C270.37 75.6008 269.832 76.1406 269.832 76.9302C269.832 77.7351 270.392 78.2595 271.178 78.2595C271.574 78.2595 271.936 78.1644 272.255 77.9048L271.975 77.4968C271.755 77.6665 271.474 77.7617 271.211 77.7617C270.843 77.7617 270.508 77.5974 270.425 77.1416H272.375C272.381 77.0731 272.387 77.004 272.387 76.93C272.381 76.1408 271.875 75.6006 271.139 75.6006L271.14 75.6008ZM278.034 76.93C278.034 76.485 278.336 76.1195 278.831 76.1195C279.303 76.1195 279.622 76.4693 279.622 76.93C279.622 77.3907 279.303 77.7405 278.831 77.7405C278.336 77.7405 278.034 77.375 278.034 76.93H278.034ZM280.16 76.93V75.6646H279.589V75.9731C279.407 75.7451 279.133 75.6022 278.76 75.6022C278.024 75.6022 277.446 76.1587 277.446 76.9315C277.446 77.7044 278.023 78.2609 278.76 78.2609C279.133 78.2609 279.407 78.1178 279.589 77.89V78.1974H280.16V76.9309L280.16 76.93ZM274.809 76.93C274.809 77.698 275.364 78.2594 276.21 78.2594C276.606 78.2594 276.869 78.1745 277.154 77.9575L276.88 77.5126C276.665 77.6611 276.44 77.7405 276.192 77.7405C275.736 77.7351 275.401 77.4174 275.401 76.93C275.401 76.4426 275.736 76.125 276.192 76.1195C276.44 76.1195 276.665 76.1989 276.88 76.3474L277.154 75.9025C276.869 75.6854 276.605 75.6006 276.21 75.6006C275.364 75.6006 274.809 76.1619 274.809 76.93ZM282.171 75.6006C281.841 75.6006 281.627 75.7491 281.478 75.9716V75.6646H280.912V78.196H281.484V76.777C281.484 76.3581 281.671 76.1253 282.044 76.1253C282.166 76.1236 282.288 76.1453 282.401 76.189L282.577 75.6702C282.451 75.6222 282.286 75.6011 282.17 75.6011L282.171 75.6006ZM266.864 75.8659C266.589 75.6913 266.211 75.6011 265.793 75.6011C265.128 75.6011 264.7 75.9085 264.7 76.4114C264.7 76.8242 265.019 77.0788 265.606 77.1583L265.875 77.1953C266.189 77.2377 266.336 77.3171 266.336 77.4601C266.336 77.6558 266.128 77.7675 265.738 77.7675C265.342 77.7675 265.057 77.6457 264.864 77.5027L264.596 77.9319C264.909 78.1543 265.305 78.2605 265.733 78.2605C266.491 78.2605 266.931 77.9162 266.931 77.4342C266.931 76.9892 266.585 76.7565 266.014 76.677L265.744 76.6394C265.497 76.6086 265.299 76.5606 265.299 76.3909C265.299 76.2058 265.486 76.0945 265.799 76.0945C266.134 76.0945 266.459 76.2163 266.618 76.3115L266.865 75.8665L266.864 75.8659ZM274.232 75.6015C273.903 75.6015 273.688 75.7501 273.541 75.9725V75.6646H272.975V78.196H273.546V76.777C273.546 76.3581 273.732 76.1253 274.106 76.1253C274.228 76.1236 274.349 76.1453 274.463 76.189L274.639 75.6702C274.512 75.6222 274.348 75.6011 274.232 75.6011L274.232 75.6015ZM269.359 75.6646H268.426V74.8967H267.848V75.6646H267.316V76.1678H267.848V77.3225C267.848 77.9099 268.085 78.2597 268.76 78.2597C269.008 78.2597 269.294 78.1857 269.475 78.064L269.31 77.5926C269.139 77.6878 268.953 77.7357 268.804 77.7357C268.519 77.7357 268.426 77.5661 268.426 77.312V76.1682H269.359V75.6646ZM260.822 78.1966V76.6079C260.822 76.0097 260.426 75.6071 259.789 75.6017C259.454 75.5963 259.108 75.6969 258.866 76.0521C258.685 75.7714 258.399 75.6017 257.998 75.6017C257.717 75.6017 257.443 75.6811 257.229 75.9776V75.6646H256.657V78.196H257.233V76.7924C257.233 76.353 257.486 76.1195 257.876 76.1195C258.256 76.1195 258.447 76.3578 258.447 76.7869V78.1957H259.025V76.7921C259.025 76.3527 259.288 76.1192 259.667 76.1192C260.057 76.1192 260.243 76.3575 260.243 76.7866V78.1954L260.822 78.1966Z" fill="white"/>
<g filter="url(#filter1_d_63_4450)">
<rect x="327" y="26" width="311" height="180" rx="16" fill="white"/>
</g>
<mask id="mask5_63_4450" style="mask-type:alpha" maskUnits="userSpaceOnUse" x="327" y="26" width="311" height="180">
<rect x="327" y="26" width="311" height="180" rx="16" fill="#2378FA"/>
</mask>
<g mask="url(#mask5_63_4450)">
</g>
<defs>
<filter id="filter0_b_63_4450" x="-45" y="-66" width="408" height="186" filterUnits="userSpaceOnUse" color-interpolation-filters="sRGB">
<feFlood flood-opacity="0" result="BackgroundImageFix"/>
<feGaussianBlur in="BackgroundImage" stdDeviation="15"/>
<feComposite in2="SourceAlpha" operator="in" result="effect1_backgroundBlur_63_4450"/>
<feBlend mode="normal" in="SourceGraphic" in2="effect1_backgroundBlur_63_4450" result="shape"/>
</filter>
<filter id="filter1_d_63_4450" x="281" y="0" width="403" height="272" filterUnits="userSpaceOnUse" color-interpolation-filters="sRGB">
<feFlood flood-opacity="0" result="BackgroundImageFix"/>
<feColorMatrix in="SourceAlpha" type="matrix" values="0 0 0 0 0 0 0 0 0 0 0 0 0 0 0 0 0 0 127 0" result="hardAlpha"/>
<feOffset dy="20"/>
<feGaussianBlur stdDeviation="23"/>
<feColorMatrix type="matrix" values="0 0 0 0 0.0470588 0 0 0 0 0.12549 0 0 0 0 0.45098 0 0 0 0.1 0"/>
<feBlend mode="normal" in2="BackgroundImageFix" result="effect1_dropShadow_63_4450"/>
<feBlend mode="normal" in="SourceGraphic" in2="effect1_dropShadow_63_4450" result="shape"/>
</filter>
</defs>
</svg>
